<?xml version="1.0" standalone="no"?>
<!DOCTYPE svg PUBLIC "-//W3C//DTD SVG 20010904//EN"
 "http://www.w3.org/TR/2001/REC-SVG-20010904/DTD/svg10.dtd">
<svg version="1.0" xmlns="http://www.w3.org/2000/svg"
 width="212.000000pt" height="300.000000pt" viewBox="0 0 212.000000 300.000000"
 preserveAspectRatio="xMidYMid meet">
<metadata>
Created by potrace 1.15, written by Peter Selinger 2001-2017
</metadata>
<g transform="translate(0.000000,300.000000) scale(0.100000,-0.100000)"
fill="#000000" stroke="none">
<path d="M2070 2248 c0 -414 -3 -1089 -7 -1500 l-6 -748 31 0 32 0 0 1500 0
1500 -25 0 -25 0 0 -752z"/>
<path d="M1164 1378 l1 -103 103 -3 102 -3 0 106 0 105 -103 0 -103 0 0 -102z"/>
<path d="M740 1165 l0 -105 105 0 c115 0 130 9 80 48 -15 12 -21 23 -15 27 5
3 13 -1 16 -10 12 -31 24 7 24 78 l0 67 -105 0 -105 0 0 -105z"/>
<path d="M1380 1165 l0 -105 105 0 c105 0 105 0 105 24 0 26 -15 43 -24 28 -3
-5 -19 -7 -36 -4 -22 3 -30 9 -28 21 4 15 21 18 63 10 15 -3 21 2 23 20 3 16
0 21 -9 16 -7 -5 -17 -1 -26 10 -7 11 -13 14 -13 9 0 -17 -50 -15 -57 2 -8 21
12 40 29 27 7 -5 20 -9 28 -8 8 1 23 3 33 3 11 1 17 10 17 27 l0 25 -105 0
-105 0 0 -105z"/>
<path d="M1198 1053 l-28 -4 0 -100 0 -99 100 0 100 0 0 105 c0 97 -1 105 -19
105 -11 0 -22 -4 -26 -10 -4 -6 -15 -6 -31 0 -25 10 -46 11 -96 3z"/>
<path d="M950 525 l0 -105 105 0 105 0 0 105 0 105 -105 0 -105 0 0 -105z"/>
</g>
</svg>
